<svg xmlns="http://www.w3.org/2000/svg" viewBox="0 0 357.22 369.51"><defs><style>.cls-1,.cls-3,.cls-4{fill:#231f20;}.cls-1,.cls-2,.cls-4{stroke:#231f20;}.cls-1,.cls-4{stroke-linejoin:round;}.cls-1,.cls-2{stroke-width:4px;}.cls-2{fill:none;stroke-miterlimit:10;}.cls-4{stroke-width:3px;}</style></defs><title>Asset 2</title><g id="Layer_2" data-name="Layer 2"><g id="Layer_1-2" data-name="Layer 1"><g id="Layer_11" data-name="Layer 11"><path class="cls-1" d="M118.76,226.72H18a306.09,306.09,0,0,0-8.46,44.86A205.51,205.51,0,0,0,98.93,350c2.16.94,4.31,1.89,6.41,2.77,3.41,1.08,6.77,2.1,10.18,3a370.76,370.76,0,0,1,.4-113.57C116.74,237,117.73,231.86,118.76,226.72Z"/></g><g id="Layer_8" data-name="Layer 8"><path class="cls-2" d="M316,253.6a290.08,290.08,0,0,0,38.48,47.78C333.23,325.12,306.84,340,306.84,340S314.22,270,316,253.6Z"/></g><g id="Layer_7" data-name="Layer 7"><path class="cls-1" d="M316,253.6q-8.6-13.07-15.84-26.88H135.93c-1.05,5.21-2,10.45-2.88,15.76a370.44,370.44,0,0,0-.4,113.57,304.36,304.36,0,0,0,94.81,11.21,177.23,177.23,0,0,0,20.61-3.71A205.57,205.57,0,0,0,306.84,340c.65-6.78,1.45-14.74,2.5-24.77Z"/></g><g id="Layer_6" data-name="Layer 6"><path class="cls-3" d="M306,205.43H.84c-.46,0-.84-.8-.84-1.78V192.22c0-1,.38-1.79.84-1.79H306c.46,0,.84.8.84,1.79v11.43C306.84,204.63,306.46,205.43,306,205.43Z"/><path class="cls-1" d="M133.57,173.67A369.75,369.75,0,0,1,257.56,5c.18-1,.48-2,.73-3A309.29,309.29,0,0,0,37.57,173.67Z"/><path class="cls-4" d="M269.41,137.21a306.36,306.36,0,0,1,5.28-132A369.82,369.82,0,0,0,150.77,173.67H278.34A306.74,306.74,0,0,1,269.41,137.21Z"/></g></g></g></svg>