<svg xmlns="http://www.w3.org/2000/svg" viewBox="0 0 509.85 214.72"><defs><style>.cls-1,.cls-3,.cls-4{fill:#231f20;}.cls-1,.cls-2,.cls-4{stroke:#231f20;}.cls-1,.cls-4{stroke-linejoin:round;}.cls-1,.cls-2{stroke-width:4px;}.cls-2{fill:none;stroke-miterlimit:10;}.cls-4{stroke-width:3px;}</style></defs><title>Logo_name</title><g id="Layer_2" data-name="Layer 2"><g id="Layer_1-2" data-name="Layer 1"><g id="Layer_6" data-name="Layer 6"><path class="cls-1" d="M73.26,131.55H15.19a178,178,0,0,0-4.88,25.86,118.51,118.51,0,0,0,51.52,45.24c1.24.54,2.48,1.09,3.69,1.6,2,.62,3.9,1.2,5.87,1.72a213.65,213.65,0,0,1,.23-65.47C72.1,137.49,72.66,134.51,73.26,131.55Z"/><path class="cls-2" d="M187,147.05a168.13,168.13,0,0,0,22.19,27.54,122.88,122.88,0,0,1-27.46,22.29S186,156.5,187,147.05Z"/><path class="cls-1" d="M187,147.05q-5-7.53-9.13-15.5H83.16c-.61,3-1.18,6-1.66,9.09a213.34,213.34,0,0,0-.23,65.47,175.4,175.4,0,0,0,54.65,6.47,103.89,103.89,0,0,0,11.89-2.14,118.7,118.7,0,0,0,33.88-13.56c.37-3.91.83-8.5,1.44-14.28Z"/><path class="cls-3" d="M500,119.28H1.38c-.76,0-1.38-.46-1.38-1v-6.59c0-.57.62-1,1.38-1H500c.76,0,1.37.46,1.37,1v6.59C501.36,118.82,500.75,119.28,500,119.28Z"/><path class="cls-1" d="M81.79,101A213.22,213.22,0,0,1,153.28,3.71c.1-.56.28-1.15.42-1.71A178.32,178.32,0,0,0,26.45,101Z"/><path class="cls-4" d="M160.11,80a176.63,176.63,0,0,1,3-76.11A213.22,213.22,0,0,0,91.72,101h73.54A175.58,175.58,0,0,1,160.11,80Z"/><path class="cls-3" d="M292.56,191l-.15-23.53L281.2,186.38h-7.67l-11.22-18.07V191H246.46V139.4h14.31l16.81,27.51L294,139.4h14.31l.14,51.63Z"/><path class="cls-3" d="M359.75,177.9V191H316.82V139.4h42v13.13H333.93v6h21.84v12.54H333.93v6.79Z"/><path class="cls-3" d="M366.46,139.4h25.45a35.12,35.12,0,0,1,15.23,3.13,23.85,23.85,0,0,1,10.25,9,27.61,27.61,0,0,1,0,27.44,23.81,23.81,0,0,1-10.25,9A35.12,35.12,0,0,1,391.91,191H366.46Zm24.71,38.06a12.42,12.42,0,0,0,9-3.21q3.36-3.21,3.36-9t-3.36-9a12.42,12.42,0,0,0-9-3.21h-7.3v24.49Z"/><path class="cls-3" d="M427.39,139.4h17.4V191h-17.4Z"/><path class="cls-3" d="M488.38,182H468.76l-3.46,9H447.6l22.57-51.63h17.11L509.85,191h-18Zm-4.79-12.54-5-13-5,13Z"/><path class="cls-3" d="M218.79,34.37a17.64,17.64,0,0,1,10.92,16.89,17.61,17.61,0,0,1-10.92,16.88,29.93,29.93,0,0,1-12.3,2.33h-7.35V83H182V32h24.53A30.09,30.09,0,0,1,218.79,34.37Zm-8.15,21.29a5.58,5.58,0,0,0,1.75-4.4,5.6,5.6,0,0,0-1.75-4.41,7.65,7.65,0,0,0-5.24-1.56h-6.26V57.23h6.26A7.65,7.65,0,0,0,210.64,55.66Z"/><path class="cls-3" d="M277.68,70V83H235.32V32h41.42V45H252.2v6h21.55V63.34H252.2V70Z"/><path class="cls-3" d="M306.14,70.18h-4.66V83H284.3V32h24.53a30.18,30.18,0,0,1,12.31,2.33,17.65,17.65,0,0,1,10.91,16.89,18,18,0,0,1-2.47,9.53,17.48,17.48,0,0,1-7.13,6.48L333.15,83H314.8ZM313,46.85a7.65,7.65,0,0,0-5.24-1.56h-6.26V57.23h6.26A7.65,7.65,0,0,0,313,55.66a5.58,5.58,0,0,0,1.75-4.4A5.6,5.6,0,0,0,313,46.85Z"/><path class="cls-3" d="M373.25,74.11H353.89L350.47,83H333L355.27,32h16.89L394.43,83H376.67Zm-4.73-12.37-4.95-12.81-4.95,12.81Z"/><path class="cls-3" d="M447.43,32V83H430.25V64.21H414.38V83H397.2V32h17.18V50.09h15.87V32Z"/><path class="cls-3" d="M461.84,77.82q-6.55-6.33-6.56-17.76V32h17.18V59.55q0,5.61,2,8.16a7.86,7.86,0,0,0,11.57,0q2-2.55,2-8.16V32h16.89v28q0,11.43-6.55,17.76t-18.27,6.34Q468.38,84.16,461.84,77.82Z"/></g></g></g></svg>